# 3ds Max Wavefront OBJ Exporter v0.99 - (c)2007 guruware
# File Created: 30.10.2021 23:38:31

mtllib interrogante.mtl

#
# object Line002
#

v  -0.9949 -0.2486 -2.0460
v  -0.9790 -0.2486 -0.7412
v  0.1666 -0.2486 -0.7730
v  0.1507 -0.2486 -2.0619
v  0.3575 -0.2486 -3.4939
v  1.5509 -0.2486 -4.9419
v  2.2829 -0.2486 -6.5012
v  2.4738 -0.2486 -8.6652
v  1.8532 -0.2486 -9.9222
v  0.6917 -0.2486 -10.6064
v  -0.9949 -0.2486 -10.6542
v  -2.6179 -0.2486 -9.8904
v  -3.0316 -0.2486 -8.8243
v  -2.9998 -0.2486 -7.2013
v  -1.8701 -0.2486 -7.2009
v  -1.8860 -0.2486 -8.7766
v  -1.5996 -0.2486 -9.2539
v  -0.8517 -0.2486 -9.6040
v  0.3257 -0.2486 -9.6199
v  0.8826 -0.2486 -9.1266
v  1.1372 -0.2486 -8.5697
v  1.1213 -0.2486 -6.7876
v  0.5803 -0.2486 -5.6420
v  -0.5335 -0.2486 -4.2418
v  -2.9998 0.8119 -7.2013
v  -1.8701 0.8119 -7.2009
v  -1.8860 0.8119 -8.7766
v  -3.0316 0.8119 -8.8243
v  -2.6179 0.8119 -9.8904
v  -1.5996 0.8119 -9.2539
v  -0.9949 0.8119 -10.6542
v  -0.8517 0.8119 -9.6040
v  0.6917 0.8119 -10.6064
v  0.3257 0.8119 -9.6199
v  1.8532 0.8119 -9.9222
v  0.8826 0.8119 -9.1266
v  2.4738 0.8119 -8.6652
v  1.1372 0.8119 -8.5697
v  2.2829 0.8119 -6.5012
v  1.1213 0.8119 -6.7876
v  1.5509 0.8119 -4.9419
v  0.5803 0.8119 -5.6420
v  0.3575 0.8119 -3.4939
v  -0.5335 0.8119 -4.2418
v  -0.9949 0.8119 -2.0460
v  0.1507 0.8119 -2.0698
v  -0.9790 0.8119 -0.7412
v  0.1666 0.8119 -0.7730
v  -0.9790 -0.2486 1.0491
v  -0.9790 -0.2486 0.0491
v  0.1666 -0.2486 0.0173
v  0.1689 -0.2475 1.0664
v  -0.9790 0.8182 1.0491
v  0.1826 0.8181 1.0764
v  0.1666 0.8119 0.0173
v  -0.9790 0.8119 0.0491
# 56 vertices

vn 0.7267 0.6833 0.0711
vn 0.5661 0.5765 -0.5892
vn -0.5884 0.5782 -0.5653
vn -0.7221 -0.6902 -0.0471
vn -0.6941 -0.6511 -0.3069
vn -0.6196 0.6800 -0.3920
vn -0.7169 0.6699 -0.1933
vn -0.7460 0.6511 0.1398
vn -0.5580 0.6481 0.5183
vn -0.2090 0.6551 0.7261
vn 0.1538 0.6585 0.7367
vn 0.5666 0.6322 0.5284
vn 0.7345 0.6660 0.1301
vn 0.5713 0.5784 -0.5823
vn -0.5803 0.5768 -0.5749
vn -0.7327 -0.6508 -0.1990
vn -0.5108 -0.6469 -0.5662
vn -0.1676 -0.6626 -0.7300
vn 0.2692 -0.6341 -0.7248
vn 0.6014 -0.6633 -0.4453
vn 0.7337 -0.6613 -0.1563
vn 0.7308 -0.6618 0.1673
vn 0.6209 -0.6821 0.3863
vn 0.6808 0.6588 0.3202
vn 0.5713 -0.5784 -0.5823
vn -0.5805 -0.5768 -0.5748
vn -0.6115 -0.7737 -0.1660
vn 0.7346 -0.6660 0.1301
vn 0.5665 -0.6323 0.5284
vn -0.4200 -0.7791 -0.4655
vn 0.1538 -0.6584 0.7368
vn -0.1460 -0.7578 -0.6360
vn -0.2090 -0.6551 0.7261
vn 0.2098 -0.7980 -0.5650
vn -0.5580 -0.6481 0.5183
vn 0.5253 -0.7568 -0.3890
vn -0.7460 -0.6511 0.1398
vn 0.6363 -0.7594 -0.1356
vn -0.7169 -0.6699 -0.1933
vn 0.6350 -0.7587 0.1454
vn -0.6196 -0.6800 -0.3920
vn 0.5767 -0.7340 0.3588
vn -0.5801 -0.7730 -0.2568
vn 0.6808 -0.6588 0.3202
vn 0.7267 -0.6832 0.0711
vn -0.6869 -0.7253 -0.0457
vn 0.5661 -0.5765 -0.5892
vn -0.5883 -0.5782 -0.5653
vn -0.5810 -0.5784 0.5725
vn -0.5846 -0.5788 -0.5686
vn 0.5692 -0.5763 -0.5863
vn 0.5708 -0.5817 0.5795
vn -0.5831 0.5806 0.5682
vn 0.5791 0.5713 0.5815
vn 0.5655 0.5748 -0.5915
vn -0.5849 0.5768 -0.5702
# 56 vertex normals

vt 0.8376 0.4966 -0.1380
vt 0.9124 0.4946 0.1380
vt 0.9131 0.5604 -0.1380
vt 0.8392 0.5623 0.1380
vt 0.7576 0.5773 0.1380
vt 0.6772 0.6489 0.1380
vt 0.5895 0.6943 0.1380
vt 0.4658 0.7099 0.1380
vt 0.3924 0.6771 0.1380
vt 0.3507 0.6121 0.1380
vt 0.3442 0.5155 0.1380
vt 0.3844 0.4208 0.1380
vt 0.4446 0.3947 0.1380
vt 0.5377 0.3930 0.1380
vt 0.5402 0.4577 0.1380
vt 0.4499 0.4603 0.1380
vt 0.4232 0.4778 0.1380
vt 0.4047 0.5214 0.1380
vt 0.4064 0.5889 0.1380
vt 0.4359 0.6198 0.1380
vt 0.4684 0.6331 0.1380
vt 0.5705 0.6283 0.1380
vt 0.6350 0.5948 0.1380
vt 0.7128 0.5279 0.1380
vt 0.8676 0.0951 -0.6779
vt 0.9324 0.0955 -0.6779
vt 0.9320 0.1563 -0.6779
vt 0.8672 0.1559 -0.6779
vt 0.7772 0.0945 -0.6779
vt 0.7768 0.1554 -0.6779
vt 0.9563 0.0670 -0.8428
vt 0.8766 0.0671 -0.8428
vt 0.8766 0.0151 -0.8428
vt 0.9562 0.0150 -0.8428
vt 0.8206 0.0672 -0.8428
vt 0.8205 0.0152 -0.8428
vt 0.7453 0.0944 -0.6779
vt 0.7449 0.1552 -0.6779
vt 0.7326 0.0674 -0.8428
vt 0.7325 0.0154 0.8428
vt 0.6979 0.0941 -0.6779
vt 0.6975 0.1549 -0.6779
vt 0.6499 0.0675 -0.8428
vt 0.6498 0.0155 -0.8428
vt 0.6304 0.0937 -0.6779
vt 0.6300 0.1545 0.6779
vt 0.5837 0.0676 -0.8428
vt 0.5837 0.0156 -0.8428
vt 0.5877 0.0934 -0.6779
vt 0.5873 0.1543 -0.6779
vt 0.5150 0.0677 -0.8428
vt 0.5149 0.0157 -0.8428
vt 0.5526 0.0932 -0.6779
vt 0.5522 0.1540 -0.6779
vt 0.4085 0.0679 -0.8428
vt 0.4084 0.0159 -0.8428
vt 0.4503 0.0926 -0.6779
vt 0.4500 0.1534 -0.6779
vt 0.3240 0.0680 -0.8428
vt 0.3239 0.0160 -0.8428
vt 0.3777 0.0922 -0.6779
vt 0.3773 0.1530 -0.6779
vt 0.2320 0.0682 -0.8428
vt 0.2319 0.0162 -0.8428
vt 0.2750 0.0916 -0.6779
vt 0.2747 0.1524 -0.6779
vt 0.1463 0.0908 -0.6779
vt 0.1460 0.1516 -0.6779
vt 0.1610 0.0683 -0.8428
vt 0.1613 0.0163 -0.8428
vt 0.0715 0.0904 -0.6779
vt 0.0711 0.1512 0.6779
vt 0.0978 0.0684 -0.8428
vt 0.0416 0.0685 -0.8428
vt 0.0415 0.0165 0.8428
vt 0.0977 0.0164 -0.8428
vt 0.6490 0.3124 0.4480
vt 0.6508 0.3781 -0.4480
vt 0.5760 0.3790 0.4480
vt 0.5746 0.3133 -0.4480
vt 0.4500 0.3525 -0.4480
vt 0.4929 0.3014 -0.4480
vt 0.3697 0.2886 -0.4480
vt 0.4099 0.2329 -0.4480
vt 0.2994 0.2599 -0.4480
vt 0.3158 0.1933 -0.4480
vt 0.1972 0.2590 -0.4480
vt 0.1917 0.1823 -0.4480
vt 0.1698 0.2713 -0.4480
vt 0.1242 0.2156 -0.4480
vt 0.1415 0.3032 -0.4480
vt 0.0850 0.2822 -0.4480
vt 0.1425 0.3707 -0.4480
vt 0.0822 0.3790 -0.4480
vt 0.1625 0.4136 -0.4480
vt 0.1260 0.4720 -0.4480
vt 0.1899 0.4301 -0.4480
vt 0.1872 0.4958 -0.4480
vt 0.2803 0.4291 -0.4480
vt 0.2803 0.4939 -0.4480
vt 0.1954 0.7334 -0.1937
vt 0.1933 0.6760 -0.1937
vt 0.2589 0.6717 -0.1937
vt 0.2613 0.7319 -0.1937
vt 0.1969 0.7945 0.1937
vt 0.2635 0.7930 0.1936
vt 0.2626 0.8537 -0.1937
vt 0.1969 0.8519 -0.1937
vt 0.3246 0.7948 -0.1937
vt 0.3234 0.8550 -0.1937
vt 0.1893 0.6153 -0.1937
vt 0.2549 0.6111 -0.1937
vt 0.1360 0.8523 -0.1937
vt 0.1357 0.7949 -0.1937
# 114 texture coords

o Line002
g Line002
usemtl wire_154185229
s 1
f 1/1/1 2/2/2 3/3/3 4/4/4 5/5/5 6/6/6 7/7/7 8/8/8 9/9/9 10/10/10 11/11/11 12/12/12 13/13/13 14/14/14 15/15/15 16/16/16 17/17/17 18/18/18 19/19/19 20/20/20 21/21/21 22/22/22 23/23/23 24/24/24 
f 15/25/15 14/26/14 25/27/25 26/28/26 
f 16/29/16 15/25/15 26/28/26 27/30/27 
f 14/31/14 13/32/13 28/33/28 25/34/25 
f 13/32/13 12/35/12 29/36/29 28/33/28 
f 17/37/17 16/29/16 27/30/27 30/38/30 
f 12/35/12 11/39/11 31/40/31 29/36/29 
f 18/41/18 17/37/17 30/38/30 32/42/32 
f 11/39/11 10/43/10 33/44/33 31/40/31 
f 19/45/19 18/41/18 32/42/32 34/46/34 
f 10/43/10 9/47/9 35/48/35 33/44/33 
f 20/49/20 19/45/19 34/46/34 36/50/36 
f 9/47/9 8/51/8 37/52/37 35/48/35 
f 21/53/21 20/49/20 36/50/36 38/54/38 
f 8/51/8 7/55/7 39/56/39 37/52/37 
f 22/57/22 21/53/21 38/54/38 40/58/40 
f 7/55/7 6/59/6 41/60/41 39/56/39 
f 23/61/23 22/57/22 40/58/40 42/62/42 
f 6/59/6 5/63/5 43/64/43 41/60/41 
f 24/65/24 23/61/23 42/62/42 44/66/44 
f 1/67/1 24/65/24 44/66/44 45/68/45 
f 5/63/5 4/69/4 46/70/46 43/64/43 
f 2/71/2 1/67/1 45/68/45 47/72/47 
f 3/73/3 2/74/2 47/75/47 48/76/48 
f 4/69/4 3/73/3 48/76/48 46/70/46 
f 48/77/48 47/78/47 45/79/45 46/80/46 
f 46/80/46 45/79/45 44/81/44 43/82/43 
f 43/82/43 44/81/44 42/83/42 41/84/41 
f 41/84/41 42/83/42 40/85/40 39/86/39 
f 39/86/39 40/85/40 38/87/38 37/88/37 
f 37/88/37 38/87/38 36/89/36 35/90/35 
f 35/90/35 36/89/36 34/91/34 33/92/33 
f 33/92/33 34/91/34 32/93/32 31/94/31 
f 31/94/31 32/93/32 30/95/30 29/96/29 
f 29/96/29 30/95/30 27/97/27 28/98/28 
f 28/98/28 27/97/27 26/99/26 25/100/25 
f 49/101/49 50/102/50 51/103/51 52/104/52 
f 53/105/53 54/106/54 55/107/55 56/108/56 
f 49/101/49 52/104/52 54/106/54 53/105/53 
f 52/109/52 51/110/51 55/107/55 54/106/54 
f 51/103/51 50/102/50 56/111/56 55/112/55 
f 50/113/50 49/114/49 53/105/53 56/108/56 
# 42 polygons

